<svg xmlns="http://www.w3.org/2000/svg" version="1.1" xmlns:xlink="http://www.w3.org/1999/xlink" xmlns:svgjs="http://svgjs.com/svgjs" width="1440" height="560" preserveAspectRatio="none" viewBox="0 0 1440 560"><g mask="url(&quot;#SvgjsMask1352&quot;)" fill="none"><path d="M1488 560L0 560 L0 366.15Q76.25 322.39, 120 398.64Q201.63 360.27, 240 441.9Q264.82 346.72, 360 371.54Q405.76 345.31, 432 391.07Q520.81 359.88, 552 448.68Q575.04 399.73, 624 422.77Q673.42 352.19, 744 401.61Q829.8 367.41, 864 453.21Q908.85 378.06, 984 422.91Q1037.83 356.74, 1104 410.57Q1127.24 361.81, 1176 385.04Q1264.15 353.2, 1296 441.35Q1313.41 386.76, 1368 404.18Q1412.62 328.8, 1488 373.41z" fill="rgba(99, 102, 241, 1)"></path><path d="M1488 560L0 560 L0 515.39Q16.03 459.42, 72 475.45Q94.14 425.59, 144 447.72Q229.29 413.01, 264 498.3Q293.96 456.26, 336 486.22Q375.56 405.79, 456 445.35Q509.27 378.63, 576 431.9Q665.42 401.32, 696 490.75Q763.26 438.01, 816 505.28Q841.22 410.5, 936 435.71Q1008.47 388.18, 1056 460.65Q1129.3 413.94, 1176 487.24Q1204.76 444, 1248 472.77Q1295.2 399.98, 1368 447.18Q1457.76 416.94, 1488 506.7z" fill="rgba(130, 132, 252, 1)"></path><path d="M1488 560L0 560 L0 544.07Q57.32 481.39, 120 538.71Q169.41 468.13, 240 517.54Q322.74 480.27, 360 563.01Q425.88 508.88, 480 574.76Q493.75 516.5, 552 530.25Q619.51 477.76, 672 545.28Q690.94 492.22, 744 511.16Q788.96 484.12, 816 529.08Q878.71 519.79, 888 582.5Q892.12 514.62, 960 518.74Q990.93 477.67, 1032 508.61Q1127.6 484.21, 1152 579.81Q1182.66 538.47, 1224 569.14Q1276.93 502.08, 1344 555.01Q1393.93 532.94, 1416 582.88Q1443.72 538.6, 1488 566.31z" fill="rgba(148, 149, 250, 1)"></path></g><defs><mask id="SvgjsMask1352"><rect width="1440" height="560" fill="#ffffff"></rect></mask></defs></svg>