<svg xmlns="http://www.w3.org/2000/svg" width="1440" height="560" preserveAspectRatio="none"><g mask="url(&quot;#a&quot;)" fill="none"><path d="M1488 560H0V366.15q76.25-43.76 120 32.49 81.63-38.37 120 43.26 24.82-95.18 120-70.36 45.76-26.23 72 19.53 88.81-31.19 120 57.61 23.04-48.95 72-25.91 49.42-70.58 120-21.16 85.8-34.2 120 51.6 44.85-75.15 120-30.3 53.83-66.17 120-12.34 23.24-48.76 72-25.53 88.15-31.84 120 56.31 17.41-54.59 72-37.17 44.62-75.38 120-30.77z" fill="rgba(99, 102, 241, 1)"/><path d="M1488 560H0v-44.61q16.03-55.97 72-39.94 22.14-49.86 72-27.73 85.29-34.71 120 50.58 29.96-42.04 72-12.08 39.56-80.43 120-40.87 53.27-66.72 120-13.45 89.42-30.58 120 58.85 67.26-52.74 120 14.53 25.22-94.78 120-69.57 72.47-47.53 120 24.94 73.3-46.71 120 26.59 28.76-43.24 72-14.47 47.2-72.79 120-25.59 89.76-30.24 120 59.52z" fill="rgba(130, 132, 252, 1)"/><path d="M1488 560H0v-15.93q57.32-62.68 120-5.36 49.41-70.58 120-21.17 82.74-37.27 120 45.47 65.88-54.13 120 11.75 13.75-58.26 72-44.51 67.51-52.49 120 15.03 18.94-53.06 72-34.12 44.96-27.04 72 17.92 62.71-9.29 72 53.42 4.12-67.88 72-63.76 30.93-41.07 72-10.13 95.6-24.4 120 71.2 30.66-41.34 72-10.67 52.93-67.06 120-14.13 49.93-22.07 72 27.87 27.72-44.28 72-16.57z" fill="rgba(148, 149, 250, 1)"/></g><defs><mask id="a"><path fill="#fff" d="M0 0h1440v560H0z"/></mask></defs></svg>